<?xml version="1.0" encoding="utf-8"?>
<!-- Generator: Adobe Illustrator 19.0.0, SVG Export Plug-In . SVG Version: 6.00 Build 0)  -->
<svg version="1.1" id="Layer_1" xmlns="http://www.w3.org/2000/svg" xmlns:xlink="http://www.w3.org/1999/xlink" x="0px" y="0px"
	 viewBox="0 0 1280 800" style="enable-background:new 0 0 1280 800;" xml:space="preserve">
<style type="text/css">
	.st0{fill:#F7F7F7;}
	.st1{fill:#282828;}
</style>
<path id="XMLID_1_" class="st0" d="M875.7,740.5h-484c-48.6,0-88-39.4-88-88v-484c0-48.6,39.4-88,88-88h484c48.6,0,88,39.4,88,88
	v484C963.7,701.1,924.3,740.5,875.7,740.5z"/>
<path id="XMLID_32_" class="st1" d="M435.7,400.1c0,48.5,0.4,97-0.1,145.5c-0.7,68.1,73,115,136.8,87.1
	c20.3-8.9,33.5-25.6,47.9-41.2c59.6-64.8,119.3-129.4,178.8-194.2c29.3-31.9,38.6-69.8,30.3-111.9c-10.8-54.5-56.1-101.7-116-103.6
	c-68.9-2.2-138-2-206.9-1.2c-44.8,0.5-72.5,40.6-71.1,76.2C437.1,304.6,435.7,352.4,435.7,400.1z M831.8,581
	c2.8-26.4-22.3-59.9-59.2-59.2c-34.2,0.6-59.1,25.7-59.1,60.7c0,32.4,26.3,58.1,59.4,58.1C806.3,640.6,831.8,614.9,831.8,581z"/>
</svg>
